<?xml version="1.0" encoding="utf-8"?>
<!-- Generator: Adobe Illustrator 18.0.0, SVG Export Plug-In . SVG Version: 6.00 Build 0)  -->
<!DOCTYPE svg PUBLIC "-//W3C//DTD SVG 1.1//EN" "http://www.w3.org/Graphics/SVG/1.1/DTD/svg11.dtd">
<svg version="1.1" id="Layer_1" xmlns="http://www.w3.org/2000/svg" xmlns:xlink="http://www.w3.org/1999/xlink" x="0px" y="0px"
	 viewBox="0 0 64 64" enable-background="new 0 0 64 64" xml:space="preserve">
<g>
	<g>
		<g>
			<path d="M20.9,60.8c1.5-2.5,3.8-6.7,4.7-10.1c0.5-1.8,2.3-9.1,2.3-9.1c1.2,2.4,4.8,4.4,8.6,4.4C47.8,46,56,35.4,56,22.1
				C56,9.5,45.9,0,32.8,0C16.6,0,8,11.1,8,23.2c0,5.6,2.9,12.6,7.6,14.9c0.7,0.3,1.1,0.2,1.3-0.5c0.1-0.5,0.8-3.1,1-4.3
				c0.1-0.4,0-0.7-0.3-1.1c-1.6-1.9-2.8-5.5-2.8-8.8c0-8.5,6.3-16.6,17-16.6c9.2,0,15.7,6.4,15.7,15.6c0,10.4-5.1,17.6-11.8,17.6
				c-3.7,0-6.5-3.1-5.6-6.9c1.1-4.6,3.1-9.5,3.1-12.8c0-2.9-1.5-5.4-4.8-5.4c-3.8,0-6.8,4-6.8,9.3c0,3.4,1.1,5.7,1.1,5.7
				s-3.7,16.1-4.4,19.1c-0.8,3.3-0.5,8-0.1,11l0.4,4.2L20.9,60.8z"/>
		</g>
	</g>
</g>
</svg>
