<?xml version="1.0" encoding="utf-8"?>
<!-- Generator: Adobe Illustrator 18.0.0, SVG Export Plug-In . SVG Version: 6.00 Build 0)  -->
<!DOCTYPE svg PUBLIC "-//W3C//DTD SVG 1.1//EN" "http://www.w3.org/Graphics/SVG/1.1/DTD/svg11.dtd">
<svg version="1.1" id="Layer_1" xmlns="http://www.w3.org/2000/svg" xmlns:xlink="http://www.w3.org/1999/xlink" x="0px" y="0px"
	 viewBox="0 0 64 64" enable-background="new 0 0 64 64" xml:space="preserve">
<g>
	<path d="M64,18c-0.3,6.3-4.6,14.9-13.1,25.9C42.2,55.3,34.9,61,28.8,61c-3.7,0-6.9-3.5-9.5-10.5c-1.7-6.4-3.4-12.8-5.2-19.2
		c-1.9-7-4-10.5-6.2-10.5c-0.5,0-2.2,1-5,3l-3-3.9c3.2-2.8,6.3-5.6,9.3-8.4C13.6,8,16.7,6,18.8,5.8c5-0.5,8,3,9.2,10.3
		c1.2,8,2.1,12.9,2.6,14.8c1.4,6.6,3,9.9,4.7,9.9c1.3,0,3.4-2.1,6-6.4c2.7-4.3,4.1-7.5,4.3-9.8c0.4-3.7-1.1-5.5-4.3-5.5
		c-1.5,0-3.1,0.4-4.7,1.1C39.8,9.8,45.8,4.7,54.7,5C61.2,5.2,64.3,9.5,64,18z"/>
</g>
</svg>
