<?xml version="1.0" encoding="utf-8"?>
<!-- Generator: Adobe Illustrator 18.0.0, SVG Export Plug-In . SVG Version: 6.00 Build 0)  -->
<!DOCTYPE svg PUBLIC "-//W3C//DTD SVG 1.1//EN" "http://www.w3.org/Graphics/SVG/1.1/DTD/svg11.dtd">
<svg version="1.1" id="Layer_1" xmlns="http://www.w3.org/2000/svg" xmlns:xlink="http://www.w3.org/1999/xlink" x="0px" y="0px"
	 viewBox="0 0 64 64" enable-background="new 0 0 64 64" xml:space="preserve">
<g>
	<g>
		<g>
			<path d="M32,34c-8.3,0-15,6.7-15,15s6.7,15,15,15s15-6.7,15-15S40.3,34,32,34z M36.4,55.3L32,52.9l-4.4,2.4l0.8-5.1l-3.6-3.6
				l4.9-0.8l2.2-4.7l2.2,4.7l4.9,0.8l-3.6,3.6L36.4,55.3z"/>
		</g>
	</g>
	<g>
		<g>
			<polygon points="53,8 56,8 56,0 8,0 8,8 11,8 			"/>
		</g>
	</g>
</g>
<g>
	<g>
		<g>
			<path d="M40,12H24v19.8c2.4-1.1,5.1-1.8,8-1.8s5.6,0.6,8,1.8V12z"/>
		</g>
	</g>
	<g>
		<g>
			<path d="M20,12h-9v20l6.5,4.7c0.7-0.9,1.6-1.7,2.5-2.4V12z"/>
		</g>
	</g>
	<g>
		<g>
			<path d="M44,12v22.3c0.9,0.7,1.7,1.5,2.5,2.4L53,32V12H44z"/>
		</g>
	</g>
</g>
</svg>
