<?xml version="1.0" encoding="utf-8"?>
<!-- Generator: Adobe Illustrator 18.0.0, SVG Export Plug-In . SVG Version: 6.00 Build 0)  -->
<!DOCTYPE svg PUBLIC "-//W3C//DTD SVG 1.1//EN" "http://www.w3.org/Graphics/SVG/1.1/DTD/svg11.dtd">
<svg version="1.1" id="Layer_1" xmlns="http://www.w3.org/2000/svg" xmlns:xlink="http://www.w3.org/1999/xlink" x="0px" y="0px"
	 viewBox="0 0 64 64" enable-background="new 0 0 64 64" xml:space="preserve">
<g>
	<path d="M60,31.8c-1.6,0.4-3.2,0.5-4.7,0.5c-8.1,0-14.3-5.6-14.3-15.4c0-4.8,1.9-7.3,4.5-7.3c2.5,0,4.2,2.2,4.2,6.8
		c0,2.6-0.7,5.4-1.2,7.1c0,0,2.5,4.3,9.3,3c1.4-3.2,2.2-7.4,2.2-11C60,5.7,55,0,45.9,0C36.5,0,31,7.2,31,16.8
		c0,9.5,4.4,17.6,11.7,21.3c-3.1,6.1-7,11.5-11,15.6c-7.4-8.9-14-20.8-16.8-44.1H4c5,38.7,20,51,23.9,53.4c2.2,1.3,4.2,1.3,6.2,0.1
		c3.2-1.8,12.9-11.5,18.2-22.8c2.2,0,4.9-0.3,7.6-0.9V31.8z"/>
</g>
</svg>
