<?xml version="1.0" encoding="utf-8"?>
<!-- Generator: Adobe Illustrator 18.0.0, SVG Export Plug-In . SVG Version: 6.00 Build 0)  -->
<!DOCTYPE svg PUBLIC "-//W3C//DTD SVG 1.1//EN" "http://www.w3.org/Graphics/SVG/1.1/DTD/svg11.dtd">
<svg version="1.1" id="Layer_1" xmlns="http://www.w3.org/2000/svg" xmlns:xlink="http://www.w3.org/1999/xlink" x="0px" y="0px"
	 viewBox="0 0 64 64" enable-background="new 0 0 64 64" xml:space="preserve">
<g>
	<g>
		<polygon points="14,16.6 0,20.9 0,59.1 14,63.4 		"/>
	</g>
</g>
<g>
	<g>
		<polygon points="50,16.6 50,63.4 64,59.1 64,20.9 		"/>
	</g>
</g>
<g>
	<g>
		<path d="M43,11.2C43,5,38.1,0,32,0S21,5,21,11.2c0,7.2,9,16.4,11,18.8C34,27.5,43,18.3,43,11.2z M28,10c0-2.2,1.8-4,4-4s4,1.8,4,4
			s-1.8,4-4,4S28,12.2,28,10z"/>
	</g>
</g>
<g>
	<g>
		<path d="M28.9,32.6c-0.2-0.3-0.6-0.6-0.9-1.1c-2.7-3.1-7.7-8.8-9.9-14.8l-0.1,0v46.8l12-3.7V33.9L28.9,32.6z"/>
	</g>
</g>
<g>
	<g>
		<path d="M36.1,31.3c-0.4,0.5-0.8,0.9-1,1.2L34,33.9v25.8l12,3.7V16.6l-0.1,0C43.8,22.6,38.8,28.2,36.1,31.3z"/>
	</g>
</g>
</svg>
