<?xml version="1.0" encoding="utf-8"?>
<!-- Generator: Adobe Illustrator 18.0.0, SVG Export Plug-In . SVG Version: 6.00 Build 0)  -->
<!DOCTYPE svg PUBLIC "-//W3C//DTD SVG 1.1//EN" "http://www.w3.org/Graphics/SVG/1.1/DTD/svg11.dtd">
<svg version="1.1" id="Layer_1" xmlns="http://www.w3.org/2000/svg" xmlns:xlink="http://www.w3.org/1999/xlink" x="0px" y="0px"
	 viewBox="0 0 64 64" enable-background="new 0 0 64 64" xml:space="preserve">
<g>
	<g>
		<rect x="0.8" y="21" width="13.3" height="42.7"/>
	</g>
	<g>
		<path d="M7.4-0.2c-4.3,0-7.7,3.5-7.7,7.7s3.4,7.7,7.7,7.7c4.2,0,7.7-3.5,7.7-7.7S11.7-0.2,7.4-0.2z"/>
	</g>
	<g>
		<path d="M47.8,19.9c-6.5,0-10.8,3.5-12.5,6.9h-0.2V21H22.4v42.7h13.2V42.6c0-5.6,1.1-11,8-11c6.8,0,6.9,6.4,6.9,11.3v20.8h13.3
			V40.3C63.8,28.8,61.3,19.9,47.8,19.9z"/>
	</g>
</g>
</svg>
