<?xml version="1.0" encoding="utf-8"?>
<!-- Generator: Adobe Illustrator 18.0.0, SVG Export Plug-In . SVG Version: 6.00 Build 0)  -->
<!DOCTYPE svg PUBLIC "-//W3C//DTD SVG 1.1//EN" "http://www.w3.org/Graphics/SVG/1.1/DTD/svg11.dtd">
<svg version="1.1" id="Layer_1" xmlns="http://www.w3.org/2000/svg" xmlns:xlink="http://www.w3.org/1999/xlink" x="0px" y="0px"
	 viewBox="0 0 64 64" enable-background="new 0 0 64 64" xml:space="preserve">
<g>
	<g>
		<path d="M62,22.8l-18.9-1.5c-0.8-0.1-1.6-0.6-1.9-1.4L34,1.4c-0.7-1.9-3.4-1.9-4.1,0l-7.2,18.5c-0.3,0.8-1,1.3-1.9,1.4L2,22.8
			c-1.9,0.1-2.7,2.6-1.3,3.8l14.6,12.9c0.6,0.5,0.9,1.4,0.7,2.2l-4.6,19.6c-0.5,1.9,1.7,3.4,3.3,2.4l16-10.4c0.7-0.5,1.7-0.5,2.4,0
			l16,10.4c1.7,1.1,3.8-0.4,3.3-2.4L48,41.7c-0.2-0.8,0.1-1.6,0.7-2.2l14.6-12.9C64.7,25.3,63.9,22.9,62,22.8z"/>
	</g>
</g>
</svg>
