<?xml version="1.0" encoding="utf-8"?>
<!-- Generator: Adobe Illustrator 18.0.0, SVG Export Plug-In . SVG Version: 6.00 Build 0)  -->
<!DOCTYPE svg PUBLIC "-//W3C//DTD SVG 1.1//EN" "http://www.w3.org/Graphics/SVG/1.1/DTD/svg11.dtd">
<svg version="1.1" id="Layer_1" xmlns="http://www.w3.org/2000/svg" xmlns:xlink="http://www.w3.org/1999/xlink" x="0px" y="0px"
	 viewBox="0 0 64 64" enable-background="new 0 0 64 64" xml:space="preserve">
<g>
	<path d="M61.7,37.3c0,0.1,0,0.2-0.1,0.3L61.6,37C61.6,37.1,61.7,37.2,61.7,37.3c0.3-1.8,0.5-3.6,0.5-5.5c0-4.1-0.8-8.1-2.4-11.8
		c-1.5-3.6-3.7-6.8-6.5-9.6c-2.8-2.8-6-5-9.6-6.5C40.1,2.4,36.1,1.6,32,1.6c-1.9,0-3.8,0.2-5.7,0.5c0,0,0,0,0,0
		c0.1,0.1,0.2,0.1,0.3,0.2L26,2.2c0.1,0,0.2,0,0.3-0.1C23.7,0.7,20.8,0,17.9,0C13.1,0,8.6,1.9,5.2,5.3C1.9,8.6,0,13.1,0,17.9
		c0,3,0.8,6,2.2,8.7c0-0.1,0-0.2,0.1-0.3l0.1,0.6c-0.1-0.1-0.1-0.2-0.2-0.3c-0.3,1.7-0.5,3.5-0.5,5.2c0,4.1,0.8,8.1,2.4,11.8
		c1.5,3.6,3.7,6.8,6.5,9.6c2.8,2.8,6,5,9.6,6.5c3.7,1.6,7.7,2.4,11.8,2.4c1.8,0,3.6-0.2,5.3-0.5c-0.1-0.1-0.2-0.1-0.3-0.2l0.6,0.1
		c-0.1,0-0.2,0-0.3,0.1C40,63.2,43,64,46.1,64c4.8,0,9.3-1.9,12.6-5.3c3.4-3.4,5.2-7.9,5.2-12.7C64,43,63.2,40,61.7,37.3z
		 M32.1,50.4c-10.7,0-15.5-5.3-15.5-9.3c0-2,1.5-3.5,3.6-3.5c4.6,0,3.4,6.6,12,6.6c4.4,0,6.8-2.4,6.8-4.8c0-1.5-0.7-3.1-3.6-3.8
		l-9.5-2.4c-7.7-1.9-9.1-6.1-9.1-10c0-8.1,7.6-11.2,14.8-11.2c6.6,0,14.4,3.7,14.4,8.5c0,2.1-1.8,3.3-3.9,3.3
		c-3.9,0-3.2-5.4-11.1-5.4c-3.9,0-6.1,1.8-6.1,4.3c0,2.5,3.1,3.4,5.8,4l7.1,1.6c7.7,1.7,9.7,6.3,9.7,10.5
		C47.4,45.5,42.4,50.4,32.1,50.4z"/>
</g>
</svg>
