<?xml version="1.0" encoding="utf-8"?>
<!-- Generator: Adobe Illustrator 18.0.0, SVG Export Plug-In . SVG Version: 6.00 Build 0)  -->
<!DOCTYPE svg PUBLIC "-//W3C//DTD SVG 1.1//EN" "http://www.w3.org/Graphics/SVG/1.1/DTD/svg11.dtd">
<svg version="1.1" id="Layer_1" xmlns="http://www.w3.org/2000/svg" xmlns:xlink="http://www.w3.org/1999/xlink" x="0px" y="0px"
	 viewBox="0 0 64 64" enable-background="new 0 0 64 64" xml:space="preserve">
<g>
	<g>
		<path d="M63.9,45.1L63.9,45.1L61,22.9c-0.7-5-3-7.8-5.2-9.3l-0.3-1.4C54.7,6.9,50.9,3,45.8,3C40.6,3,36,7.7,36,12.5v1.2h-8v-1.2
			C28,7.7,23.4,3,18.2,3c-5.1,0-8.9,3.9-9.7,9.1l-0.3,1.4c-2.1,1.6-4.4,4.4-5.2,9.4L0,45l0,0.1l0.1,0C0,45.6,0,46,0,46.5
			C0,54.2,6.3,61,14,61c6.1,0,11.3-4.5,13.2-10c1.4,0.9,3,1.4,4.8,1.4c1.7,0,3.4-0.5,4.8-1.4c1.9,5.5,7.1,10,13.2,10
			c7.7,0,14-6.8,14-14.5C64,46,64,45.6,63.9,45.1z M14,56c-5,0-9-4.5-9-9.3c0-0.3,0-0.6,0-0.9c0.5-4.5,4.3-7.8,9-7.8
			c4.4,0,8.1,3,8.9,7.2c0.1,0.5,0.1,1,0.1,1.5C23,51.5,19,56,14,56z M35,44.3c-0.1,1.5-1.4,2.7-3,2.7s-2.9-1.2-3-2.7
			c0-0.1,0-0.2,0-0.3c0-0.2,0-0.3,0.1-0.5C29.3,42,30.5,41,32,41s2.7,1,3,2.5c0,0.1,0,0.3,0,0.5C35,44.1,35,44.2,35,44.3z M50,56
			c-5,0-9-4.5-9-9.3c0-0.5,0-1,0.1-1.5C41.9,41,45.6,38,50,38c4.4,0,8.2,3.2,8.9,7.4c0.1,0.4,0.1,0.8,0.1,1.3C59,51.5,55,56,50,56z"
			/>
	</g>
</g>
</svg>
