<?xml version="1.0" encoding="utf-8"?>
<!-- Generator: Adobe Illustrator 18.0.0, SVG Export Plug-In . SVG Version: 6.00 Build 0)  -->
<!DOCTYPE svg PUBLIC "-//W3C//DTD SVG 1.1//EN" "http://www.w3.org/Graphics/SVG/1.1/DTD/svg11.dtd">
<svg version="1.1" id="Layer_1" xmlns="http://www.w3.org/2000/svg" xmlns:xlink="http://www.w3.org/1999/xlink" x="0px" y="0px"
	 viewBox="0 0 64 64" enable-background="new 0 0 64 64" xml:space="preserve">
<g>
	<g>
		<g>
			<g>
				<path d="M60,16H4c-2.2,0-4-1.8-4-4v0c0-2.2,1.8-4,4-4h56c2.2,0,4,1.8,4,4v0C64,14.2,62.2,16,60,16z"/>
			</g>
		</g>
	</g>
	<g>
		<g>
			<g>
				<path d="M60,56H4c-2.2,0-4-1.8-4-4v0c0-2.2,1.8-4,4-4h56c2.2,0,4,1.8,4,4v0C64,54.2,62.2,56,60,56z"/>
			</g>
		</g>
	</g>
	<g>
		<g>
			<g>
				<path d="M60,36H4c-2.2,0-4-1.8-4-4v0c0-2.2,1.8-4,4-4h56c2.2,0,4,1.8,4,4v0C64,34.2,62.2,36,60,36z"/>
			</g>
		</g>
	</g>
</g>
</svg>
