<?xml version="1.0" encoding="utf-8"?>
<!-- Generator: Adobe Illustrator 18.0.0, SVG Export Plug-In . SVG Version: 6.00 Build 0)  -->
<!DOCTYPE svg PUBLIC "-//W3C//DTD SVG 1.1//EN" "http://www.w3.org/Graphics/SVG/1.1/DTD/svg11.dtd">
<svg version="1.1" id="Layer_1" xmlns="http://www.w3.org/2000/svg" xmlns:xlink="http://www.w3.org/1999/xlink" x="0px" y="0px"
	 viewBox="0 0 64 64" enable-background="new 0 0 64 64" xml:space="preserve">
<g>
	<g>
		<path d="M20.4,29.1V36h11.5c-0.5,2.9-3.5,8.6-11.5,8.6c-7,0-12.6-5.7-12.6-12.6s5.7-12.6,12.6-12.6c4,0,6.6,1.7,8.1,3.1l5.5-5.2
			C30.5,14,25.9,12,20.4,12C9.1,12,0,20.9,0,32s9.1,20,20.4,20c11.8,0,19.5-8.1,19.5-19.5c0-1.3-0.1-2.3-0.3-3.3H20.4z"/>
	</g>
	<g>
		<path d="M58.2,29.1v-5.7h-5.8v5.7h-5.8v5.7h5.8v5.7h5.8v-5.7H64c0,0.1,0-5.7,0-5.7H58.2z"/>
	</g>
</g>
</svg>
