<?xml version="1.0" encoding="utf-8"?>
<!-- Generator: Adobe Illustrator 18.0.0, SVG Export Plug-In . SVG Version: 6.00 Build 0)  -->
<!DOCTYPE svg PUBLIC "-//W3C//DTD SVG 1.1//EN" "http://www.w3.org/Graphics/SVG/1.1/DTD/svg11.dtd">
<svg version="1.1" id="Layer_1" xmlns="http://www.w3.org/2000/svg" xmlns:xlink="http://www.w3.org/1999/xlink" x="0px" y="0px"
	 viewBox="0 0 64 64" enable-background="new 0 0 64 64" xml:space="preserve">
<g>
	<g>
		<g>
			<path d="M49,17.2C49,7.7,41.4,0,32,0S15,7.7,15,17.2c0,11,13.8,25.1,17,28.8C35.1,42.2,49,28.1,49,17.2z M26,16c0-3.3,2.7-6,6-6
				s6,2.7,6,6s-2.7,6-6,6S26,19.3,26,16z"/>
		</g>
	</g>
	<g>
		<g>
			<polygon points="57.2,33 46,33 46,41 50.8,41 54,56 10,56 13.2,41 18,41 18,33 6.8,33 0,64 64,64 			"/>
		</g>
	</g>
</g>
</svg>
