<?xml version="1.0" encoding="utf-8"?>
<!-- Generator: Adobe Illustrator 18.0.0, SVG Export Plug-In . SVG Version: 6.00 Build 0)  -->
<!DOCTYPE svg PUBLIC "-//W3C//DTD SVG 1.1//EN" "http://www.w3.org/Graphics/SVG/1.1/DTD/svg11.dtd">
<svg version="1.1" id="Layer_1" xmlns="http://www.w3.org/2000/svg" xmlns:xlink="http://www.w3.org/1999/xlink" x="0px" y="0px"
	 viewBox="0 0 64 64" enable-background="new 0 0 64 64" xml:space="preserve">
<g>
	<g>
		<g>
			<path d="M61.6,36.7c0.3-1.5,0.4-3.1,0.4-4.7c0-1.6-0.1-3.2-0.4-4.7c4-7,2.8-16-2.9-21.8l-0.2-0.2c-5.7-5.7-14.7-6.9-21.7-2.9
				c-3.1-0.5-6.5-0.5-9.6,0c-7-4-16-2.8-21.7,2.9L5.3,5.5c-5.7,5.7-6.9,14.8-2.9,21.8C2.1,28.8,2,30.4,2,32c0,1.6,0.1,3.2,0.4,4.7
				c-4,7-2.8,16.1,2.9,21.8l0.2,0.2c3.5,3.5,8.1,5.3,12.9,5.3c3.1,0,6.2-0.8,9-2.4c1.6,0.2,3.1,0.4,4.7,0.4c1.6,0,3.2-0.1,4.7-0.4
				c2.8,1.6,5.9,2.4,9,2.4c4.7,0,9.4-1.8,12.9-5.3l0.2-0.2C64.4,52.8,65.6,43.8,61.6,36.7z M36.4,44.2c-2.8,1-6,1-8.8,0
				c-3.3-1.2-6-3.6-7.4-6.8C19.4,35.7,19,33.9,19,32s0.4-3.7,1.2-5.4c1.5-3.2,4.2-5.6,7.4-6.8C29,19.3,30.5,19,32,19s3,0.3,4.4,0.8
				c3.3,1.2,6,3.6,7.4,6.8c0.8,1.7,1.2,3.5,1.2,5.4s-0.4,3.7-1.2,5.5C42.3,40.6,39.6,43.1,36.4,44.2z M47.3,24.7
				c-1.9-3.9-5.2-6.9-9.1-8.5l4-8.1c5.8,2.5,10.5,7,13.3,12.8L47.3,24.7z M21.8,8.1l4,8.1c-4,1.6-7.3,4.6-9.1,8.5l-8.2-3.8
				C11.2,15.1,15.9,10.6,21.8,8.1z M16.7,39.3c1.9,3.9,5.2,6.9,9.1,8.5l-4,8.1c-5.8-2.5-10.5-7-13.3-12.8L16.7,39.3z M42.2,55.9
				l-4-8.1c4-1.6,7.3-4.6,9.1-8.5l8.2,3.8C52.8,48.9,48.1,53.4,42.2,55.9z M55.7,8.2l0.2,0.2c3.3,3.3,4.6,7.9,3.9,12.4
				c-0.2-0.4-0.3-0.9-0.5-1.3c-3.1-6.8-8.7-12.2-15.6-15.1c-0.1,0-0.2-0.1-0.3-0.1C47.8,3.5,52.4,4.9,55.7,8.2z M8.1,8.3l0.2-0.2
				c3.3-3.3,7.9-4.6,12.3-3.9c-0.1,0-0.2,0.1-0.3,0.1C13.4,7.3,7.9,12.6,4.8,19.4c-0.2,0.4-0.4,0.8-0.5,1.3
				C3.5,16.3,4.8,11.6,8.1,8.3z M8.3,55.9l-0.2-0.2c-3.3-3.3-4.7-8-3.9-12.4c0.2,0.4,0.4,0.9,0.5,1.3c3.1,6.8,8.7,12.2,15.6,15.1
				c0.1,0,0.2,0.1,0.4,0.1C16.3,60.5,11.6,59.2,8.3,55.9z M55.9,55.7l-0.2,0.2c-3.3,3.3-8,4.6-12.4,3.9c0.1,0,0.2-0.1,0.4-0.1
				c6.9-2.9,12.4-8.3,15.6-15.1c0.2-0.4,0.4-0.8,0.5-1.3C60.5,47.7,59.2,52.4,55.9,55.7z"/>
		</g>
	</g>
</g>
</svg>
