<?xml version="1.0" encoding="utf-8"?>
<!-- Generator: Adobe Illustrator 18.0.0, SVG Export Plug-In . SVG Version: 6.00 Build 0)  -->
<!DOCTYPE svg PUBLIC "-//W3C//DTD SVG 1.1//EN" "http://www.w3.org/Graphics/SVG/1.1/DTD/svg11.dtd">
<svg version="1.1" id="Layer_1" xmlns="http://www.w3.org/2000/svg" xmlns:xlink="http://www.w3.org/1999/xlink" x="0px" y="0px"
	 viewBox="0 0 64 64" enable-background="new 0 0 64 64" xml:space="preserve">
<g>
	<path d="M63.4,19.5c0,0-0.6-4.3-2.5-6.2c-2.4-2.5-5.2-2.5-6.4-2.6C45.4,10,32,10,32,10h0c0,0-13.4,0-22.4,0.6
		c-1.3,0.1-4,0.2-6.4,2.6c-1.9,1.9-2.5,6.2-2.5,6.2S0,24.6,0,29.6v4.7c0,5.1,0.6,10.1,0.6,10.1s0.6,4.3,2.5,6.2
		c2.4,2.5,5.6,2.4,7.1,2.7C15.4,53.9,32,54,32,54s13.4,0,22.4-0.7c1.3-0.1,4-0.2,6.4-2.6c1.9-1.9,2.5-6.2,2.5-6.2S64,39.4,64,34.4
		v-4.7C64,24.6,63.4,19.5,63.4,19.5z M25.4,40.1l0-17.6l17.3,8.8L25.4,40.1z"/>
</g>
</svg>
